<mxfile host="app.diagrams.net" modified="2023-12-20T16:37:57.958Z" agent="Mozilla/5.0 (Windows NT 10.0; Win64; x64) AppleWebKit/537.36 (KHTML, like Gecko) Chrome/120.0.0.0 Safari/537.36 Edg/120.0.0.0" etag="dtWMeaef-TMmv5sGCWIj" version="22.1.11" type="device">
  <diagram name="第 1 页" id="TqKDPVgios2m9M21Ib9q">
    <mxGraphModel dx="2165" dy="2223" grid="1" gridSize="10" guides="1" tooltips="1" connect="1" arrows="1" fold="1" page="1" pageScale="1" pageWidth="1169" pageHeight="827" background="none" math="0" shadow="0">
      <root>
        <mxCell id="0" />
        <mxCell id="1" parent="0" />
        <mxCell id="a-M4X8nVCb2_B6a_NORF-1" value="" style="endArrow=none;html=1;rounded=0;entryX=0;entryY=0.5;entryDx=0;entryDy=0;" parent="1" source="a-M4X8nVCb2_B6a_NORF-46" target="a-M4X8nVCb2_B6a_NORF-25" edge="1">
          <mxGeometry width="50" height="50" relative="1" as="geometry">
            <mxPoint x="550" y="-969" as="sourcePoint" />
            <mxPoint x="460" y="-847" as="targetPoint" />
          </mxGeometry>
        </mxCell>
        <mxCell id="a-M4X8nVCb2_B6a_NORF-2" value="" style="endArrow=none;html=1;rounded=0;entryX=0.099;entryY=-0.001;entryDx=0;entryDy=0;entryPerimeter=0;" parent="1" source="a-M4X8nVCb2_B6a_NORF-48" target="a-M4X8nVCb2_B6a_NORF-28" edge="1">
          <mxGeometry width="50" height="50" relative="1" as="geometry">
            <mxPoint x="288" y="-680" as="sourcePoint" />
            <mxPoint x="440" y="-552" as="targetPoint" />
          </mxGeometry>
        </mxCell>
        <mxCell id="a-M4X8nVCb2_B6a_NORF-3" value="" style="endArrow=none;html=1;rounded=0;entryX=0.5;entryY=0;entryDx=0;entryDy=0;" parent="1" source="a-M4X8nVCb2_B6a_NORF-48" target="7-CjSvImoollpPjnMUuW-15" edge="1">
          <mxGeometry width="50" height="50" relative="1" as="geometry">
            <mxPoint x="204.88950276243077" y="-679.9999999999998" as="sourcePoint" />
            <mxPoint x="240" y="-576" as="targetPoint" />
          </mxGeometry>
        </mxCell>
        <mxCell id="a-M4X8nVCb2_B6a_NORF-4" value="Manages" style="text;html=1;align=center;verticalAlign=middle;resizable=0;points=[];autosize=1;strokeColor=none;fillColor=none;fontFamily=Times New Roman;fontStyle=1;fontSize=14;" parent="1" vertex="1">
          <mxGeometry x="584.5" y="-990" width="80" height="30" as="geometry" />
        </mxCell>
        <mxCell id="a-M4X8nVCb2_B6a_NORF-5" value="1" style="text;html=1;align=center;verticalAlign=middle;resizable=0;points=[];autosize=1;strokeColor=none;fillColor=none;fontFamily=Times New Roman;fontStyle=1;fontSize=14;" parent="1" vertex="1">
          <mxGeometry x="540" y="-990" width="30" height="30" as="geometry" />
        </mxCell>
        <mxCell id="a-M4X8nVCb2_B6a_NORF-6" value="0..*" style="text;html=1;align=center;verticalAlign=middle;resizable=0;points=[];autosize=1;strokeColor=none;fillColor=none;fontFamily=Times New Roman;fontStyle=1;fontSize=14;" parent="1" vertex="1">
          <mxGeometry x="670" y="-990" width="40" height="30" as="geometry" />
        </mxCell>
        <mxCell id="a-M4X8nVCb2_B6a_NORF-7" value="" style="endArrow=none;html=1;rounded=0;entryX=0;entryY=0.5;entryDx=0;entryDy=0;exitX=1;exitY=0.5;exitDx=0;exitDy=0;" parent="1" source="a-M4X8nVCb2_B6a_NORF-50" target="a-M4X8nVCb2_B6a_NORF-46" edge="1">
          <mxGeometry width="50" height="50" relative="1" as="geometry">
            <mxPoint x="-90" y="-807" as="sourcePoint" />
            <mxPoint x="82.5" y="-867" as="targetPoint" />
          </mxGeometry>
        </mxCell>
        <mxCell id="a-M4X8nVCb2_B6a_NORF-8" value="Treats" style="text;html=1;align=center;verticalAlign=middle;resizable=0;points=[];autosize=1;strokeColor=none;fillColor=none;fontFamily=Times New Roman;fontStyle=1;fontSize=14;" parent="1" vertex="1">
          <mxGeometry x="-65" y="-990" width="60" height="30" as="geometry" />
        </mxCell>
        <mxCell id="a-M4X8nVCb2_B6a_NORF-9" value="" style="endArrow=none;html=1;rounded=0;entryX=0;entryY=0.5;entryDx=0;entryDy=0;exitX=1;exitY=0.5;exitDx=0;exitDy=0;" parent="1" source="7-CjSvImoollpPjnMUuW-11" target="a-M4X8nVCb2_B6a_NORF-48" edge="1">
          <mxGeometry width="50" height="50" relative="1" as="geometry">
            <mxPoint x="-180" y="-557" as="sourcePoint" />
            <mxPoint x="80" y="-711" as="targetPoint" />
          </mxGeometry>
        </mxCell>
        <mxCell id="a-M4X8nVCb2_B6a_NORF-10" value="Accesses" style="text;html=1;align=center;verticalAlign=middle;resizable=0;points=[];autosize=1;strokeColor=none;fillColor=none;fontFamily=Times New Roman;fontStyle=1;fontSize=14;" parent="1" vertex="1">
          <mxGeometry x="-100" y="-710" width="70" height="30" as="geometry" />
        </mxCell>
        <mxCell id="a-M4X8nVCb2_B6a_NORF-11" value="Creates" style="text;html=1;align=center;verticalAlign=middle;resizable=0;points=[];autosize=1;strokeColor=none;fillColor=none;fontStyle=1;fontFamily=Times New Roman;fontSize=14;" parent="1" vertex="1">
          <mxGeometry x="480" y="-730" width="70" height="30" as="geometry" />
        </mxCell>
        <mxCell id="a-M4X8nVCb2_B6a_NORF-12" value="&lt;b&gt;&lt;font face=&quot;Times New Roman&quot; style=&quot;font-size: 14px;&quot;&gt;Creates&lt;/font&gt;&lt;/b&gt;" style="text;html=1;align=center;verticalAlign=middle;resizable=0;points=[];autosize=1;strokeColor=none;fillColor=none;" parent="1" vertex="1">
          <mxGeometry x="270" y="-650" width="70" height="30" as="geometry" />
        </mxCell>
        <mxCell id="a-M4X8nVCb2_B6a_NORF-13" value="1" style="text;html=1;align=center;verticalAlign=middle;resizable=0;points=[];autosize=1;strokeColor=none;fillColor=none;fontFamily=Times New Roman;fontStyle=1;fontSize=14;" parent="1" vertex="1">
          <mxGeometry x="70" y="-990" width="30" height="30" as="geometry" />
        </mxCell>
        <mxCell id="a-M4X8nVCb2_B6a_NORF-14" value="1" style="text;html=1;align=center;verticalAlign=middle;resizable=0;points=[];autosize=1;strokeColor=none;fillColor=none;fontFamily=Times New Roman;fontStyle=1;fontSize=14;" parent="1" vertex="1">
          <mxGeometry x="-110" y="-990" width="30" height="30" as="geometry" />
        </mxCell>
        <mxCell id="a-M4X8nVCb2_B6a_NORF-15" value="1" style="text;html=1;align=center;verticalAlign=middle;resizable=0;points=[];autosize=1;strokeColor=none;fillColor=none;fontFamily=Times New Roman;fontStyle=1;fontSize=14;" parent="1" vertex="1">
          <mxGeometry x="290" y="-750" width="30" height="30" as="geometry" />
        </mxCell>
        <mxCell id="a-M4X8nVCb2_B6a_NORF-16" value="1..*" style="text;html=1;align=center;verticalAlign=middle;resizable=0;points=[];autosize=1;strokeColor=none;fillColor=none;fontFamily=Times New Roman;fontStyle=1;fontSize=14;" parent="1" vertex="1">
          <mxGeometry x="250" y="-578" width="40" height="30" as="geometry" />
        </mxCell>
        <mxCell id="a-M4X8nVCb2_B6a_NORF-17" value="1" style="text;html=1;align=center;verticalAlign=middle;resizable=0;points=[];autosize=1;strokeColor=none;fillColor=none;fontFamily=Times New Roman;fontStyle=1;fontSize=14;" parent="1" vertex="1">
          <mxGeometry x="70" y="-840" width="30" height="30" as="geometry" />
        </mxCell>
        <mxCell id="a-M4X8nVCb2_B6a_NORF-18" value="1..*" style="text;html=1;align=center;verticalAlign=middle;resizable=0;points=[];autosize=1;strokeColor=none;fillColor=none;fontFamily=Times New Roman;fontStyle=1;fontSize=14;" parent="1" vertex="1">
          <mxGeometry x="-160" y="-640" width="40" height="30" as="geometry" />
        </mxCell>
        <mxCell id="a-M4X8nVCb2_B6a_NORF-19" value="" style="endArrow=diamondThin;endFill=1;endSize=24;html=1;rounded=0;entryX=1;entryY=0.5;entryDx=0;entryDy=0;exitX=0;exitY=0.5;exitDx=0;exitDy=0;" parent="1" source="7-CjSvImoollpPjnMUuW-16" target="7-CjSvImoollpPjnMUuW-13" edge="1">
          <mxGeometry width="160" relative="1" as="geometry">
            <mxPoint x="30" y="-485" as="sourcePoint" />
            <mxPoint x="-180" y="-331" as="targetPoint" />
          </mxGeometry>
        </mxCell>
        <mxCell id="a-M4X8nVCb2_B6a_NORF-20" value="1" style="text;html=1;align=center;verticalAlign=middle;resizable=0;points=[];autosize=1;strokeColor=none;fillColor=none;fontFamily=Times New Roman;fontStyle=1;fontSize=14;" parent="1" vertex="1">
          <mxGeometry x="-170" y="-400" width="30" height="30" as="geometry" />
        </mxCell>
        <mxCell id="a-M4X8nVCb2_B6a_NORF-21" value="1" style="text;html=1;align=center;verticalAlign=middle;resizable=0;points=[];autosize=1;strokeColor=none;fillColor=none;fontFamily=Times New Roman;fontStyle=1;fontSize=14;" parent="1" vertex="1">
          <mxGeometry y="-490" width="30" height="30" as="geometry" />
        </mxCell>
        <mxCell id="a-M4X8nVCb2_B6a_NORF-22" value="1" style="text;html=1;align=center;verticalAlign=middle;resizable=0;points=[];autosize=1;strokeColor=none;fillColor=none;fontFamily=Times New Roman;fontStyle=1;fontSize=14;" parent="1" vertex="1">
          <mxGeometry x="450" y="-750" width="30" height="30" as="geometry" />
        </mxCell>
        <mxCell id="a-M4X8nVCb2_B6a_NORF-23" value="0..*" style="text;html=1;align=center;verticalAlign=middle;resizable=0;points=[];autosize=1;strokeColor=none;fillColor=none;fontFamily=Times New Roman;fontStyle=1;fontSize=14;" parent="1" vertex="1">
          <mxGeometry x="570" y="-670" width="40" height="30" as="geometry" />
        </mxCell>
        <mxCell id="a-M4X8nVCb2_B6a_NORF-24" value="&lt;font style=&quot;font-size: 14px;&quot;&gt;Appointment&lt;/font&gt;" style="swimlane;fontStyle=1;align=center;verticalAlign=top;childLayout=stackLayout;horizontal=1;startSize=26;horizontalStack=0;resizeParent=1;resizeParentMax=0;resizeLast=0;collapsible=1;marginBottom=0;whiteSpace=wrap;html=1;fontFamily=Times New Roman;fontSize=14;" parent="1" vertex="1">
          <mxGeometry x="710" y="-1032" width="330" height="350" as="geometry" />
        </mxCell>
        <mxCell id="a-M4X8nVCb2_B6a_NORF-25" value="&lt;font style=&quot;font-size: 14px;&quot;&gt;-appointmentID: int&lt;br style=&quot;&quot;&gt;-patientID : int&lt;br style=&quot;&quot;&gt;-doctorID : int&lt;br style=&quot;&quot;&gt;-appointmentTime : DateTime&lt;br style=&quot;&quot;&gt;-appointmentStatus : String&lt;/font&gt;" style="text;strokeColor=none;fillColor=none;align=left;verticalAlign=top;spacingLeft=4;spacingRight=4;overflow=hidden;rotatable=0;points=[[0,0.5],[1,0.5]];portConstraint=eastwest;whiteSpace=wrap;html=1;fontFamily=Times New Roman;fontSize=12;" parent="a-M4X8nVCb2_B6a_NORF-24" vertex="1">
          <mxGeometry y="26" width="330" height="90" as="geometry" />
        </mxCell>
        <mxCell id="a-M4X8nVCb2_B6a_NORF-26" value="" style="line;strokeWidth=1;fillColor=none;align=left;verticalAlign=middle;spacingTop=-1;spacingLeft=3;spacingRight=3;rotatable=0;labelPosition=right;points=[];portConstraint=eastwest;strokeColor=inherit;fontFamily=Times New Roman;fontSize=12;" parent="a-M4X8nVCb2_B6a_NORF-24" vertex="1">
          <mxGeometry y="116" width="330" height="8" as="geometry" />
        </mxCell>
        <mxCell id="a-M4X8nVCb2_B6a_NORF-27" value="&lt;font style=&quot;font-size: 14px;&quot;&gt;+createAppointment(int patientID, int doctorID, DateTime appointmentTime):&amp;nbsp;Boolean&lt;br style=&quot;&quot;&gt;+cancelAppointment(int appointmentID):&amp;nbsp;Boolean&lt;br style=&quot;&quot;&gt;+selectAppointment(int appointmentID):&amp;nbsp;Appointment&lt;br style=&quot;&quot;&gt;+rescheduleAppointment(Int appointmentID, Date appointmentTime):&amp;nbsp;Boolean&lt;br style=&quot;&quot;&gt;+requestReschedule(Int pateintID):&amp;nbsp;Boolean&lt;br style=&quot;&quot;&gt;+updateAppointmentStatus(int appointmentID, String status):&amp;nbsp;Boolean&lt;br style=&quot;&quot;&gt;+getAppointmentsByPatient(int patientID):&amp;nbsp;List[Appointment]&lt;br style=&quot;&quot;&gt;+getAppointmentsByDoctor(int doctorID):List[Appointment]&amp;nbsp;&lt;/font&gt;" style="text;strokeColor=none;fillColor=none;align=left;verticalAlign=top;spacingLeft=4;spacingRight=4;overflow=hidden;rotatable=0;points=[[0,0.5],[1,0.5]];portConstraint=eastwest;whiteSpace=wrap;html=1;fontFamily=Times New Roman;fontSize=12;" parent="a-M4X8nVCb2_B6a_NORF-24" vertex="1">
          <mxGeometry y="124" width="330" height="226" as="geometry" />
        </mxCell>
        <mxCell id="a-M4X8nVCb2_B6a_NORF-28" value="Prescription" style="swimlane;fontStyle=1;align=center;verticalAlign=top;childLayout=stackLayout;horizontal=1;startSize=24.6875;horizontalStack=0;resizeParent=1;resizeParentMax=0;resizeLast=0;collapsible=0;marginBottom=0;fontFamily=Times New Roman;fontSize=14;" parent="1" vertex="1">
          <mxGeometry x="480" y="-640" width="940" height="419.9975" as="geometry" />
        </mxCell>
        <mxCell id="a-M4X8nVCb2_B6a_NORF-29" value="-prescriptionID : int" style="text;strokeColor=none;fillColor=none;align=left;verticalAlign=top;spacingLeft=4;spacingRight=4;overflow=hidden;rotatable=0;points=[[0,0.5],[1,0.5]];portConstraint=eastwest;fontFamily=Times New Roman;fontSize=14;" parent="a-M4X8nVCb2_B6a_NORF-28" vertex="1">
          <mxGeometry y="24.6875" width="940" height="25" as="geometry" />
        </mxCell>
        <mxCell id="a-M4X8nVCb2_B6a_NORF-30" value="-patientID : int" style="text;strokeColor=none;fillColor=none;align=left;verticalAlign=top;spacingLeft=4;spacingRight=4;overflow=hidden;rotatable=0;points=[[0,0.5],[1,0.5]];portConstraint=eastwest;fontFamily=Times New Roman;fontSize=14;" parent="a-M4X8nVCb2_B6a_NORF-28" vertex="1">
          <mxGeometry y="49.6875" width="940" height="25" as="geometry" />
        </mxCell>
        <mxCell id="a-M4X8nVCb2_B6a_NORF-31" value="-doctorID : int" style="text;strokeColor=none;fillColor=none;align=left;verticalAlign=top;spacingLeft=4;spacingRight=4;overflow=hidden;rotatable=0;points=[[0,0.5],[1,0.5]];portConstraint=eastwest;fontFamily=Times New Roman;fontSize=14;" parent="a-M4X8nVCb2_B6a_NORF-28" vertex="1">
          <mxGeometry y="74.6875" width="940" height="25" as="geometry" />
        </mxCell>
        <mxCell id="a-M4X8nVCb2_B6a_NORF-32" value="-medications : String" style="text;strokeColor=none;fillColor=none;align=left;verticalAlign=top;spacingLeft=4;spacingRight=4;overflow=hidden;rotatable=0;points=[[0,0.5],[1,0.5]];portConstraint=eastwest;fontFamily=Times New Roman;fontSize=14;" parent="a-M4X8nVCb2_B6a_NORF-28" vertex="1">
          <mxGeometry y="99.6875" width="940" height="25" as="geometry" />
        </mxCell>
        <mxCell id="a-M4X8nVCb2_B6a_NORF-33" value="-dosage : String" style="text;strokeColor=none;fillColor=none;align=left;verticalAlign=top;spacingLeft=4;spacingRight=4;overflow=hidden;rotatable=0;points=[[0,0.5],[1,0.5]];portConstraint=eastwest;fontFamily=Times New Roman;fontSize=14;" parent="a-M4X8nVCb2_B6a_NORF-28" vertex="1">
          <mxGeometry y="124.6875" width="940" height="25" as="geometry" />
        </mxCell>
        <mxCell id="a-M4X8nVCb2_B6a_NORF-34" value="-frequency : String" style="text;strokeColor=none;fillColor=none;align=left;verticalAlign=top;spacingLeft=4;spacingRight=4;overflow=hidden;rotatable=0;points=[[0,0.5],[1,0.5]];portConstraint=eastwest;fontFamily=Times New Roman;fontSize=14;" parent="a-M4X8nVCb2_B6a_NORF-28" vertex="1">
          <mxGeometry y="149.6875" width="940" height="25" as="geometry" />
        </mxCell>
        <mxCell id="a-M4X8nVCb2_B6a_NORF-35" value="-startDate : DateTime" style="text;strokeColor=none;fillColor=none;align=left;verticalAlign=top;spacingLeft=4;spacingRight=4;overflow=hidden;rotatable=0;points=[[0,0.5],[1,0.5]];portConstraint=eastwest;fontFamily=Times New Roman;fontSize=14;" parent="a-M4X8nVCb2_B6a_NORF-28" vertex="1">
          <mxGeometry y="174.6875" width="940" height="25" as="geometry" />
        </mxCell>
        <mxCell id="a-M4X8nVCb2_B6a_NORF-36" value="-endDate : DateTime" style="text;strokeColor=none;fillColor=none;align=left;verticalAlign=top;spacingLeft=4;spacingRight=4;overflow=hidden;rotatable=0;points=[[0,0.5],[1,0.5]];portConstraint=eastwest;fontFamily=Times New Roman;fontSize=14;" parent="a-M4X8nVCb2_B6a_NORF-28" vertex="1">
          <mxGeometry y="199.6875" width="940" height="25" as="geometry" />
        </mxCell>
        <mxCell id="a-M4X8nVCb2_B6a_NORF-37" value="-notes : String" style="text;strokeColor=none;fillColor=none;align=left;verticalAlign=top;spacingLeft=4;spacingRight=4;overflow=hidden;rotatable=0;points=[[0,0.5],[1,0.5]];portConstraint=eastwest;fontFamily=Times New Roman;fontSize=14;" parent="a-M4X8nVCb2_B6a_NORF-28" vertex="1">
          <mxGeometry y="224.6875" width="940" height="25" as="geometry" />
        </mxCell>
        <mxCell id="a-M4X8nVCb2_B6a_NORF-38" style="line;strokeWidth=1;fillColor=none;align=left;verticalAlign=middle;spacingTop=-1;spacingLeft=3;spacingRight=3;rotatable=0;labelPosition=right;points=[];portConstraint=eastwest;strokeColor=inherit;fontFamily=Times New Roman;" parent="a-M4X8nVCb2_B6a_NORF-28" vertex="1">
          <mxGeometry y="249.6875" width="940" height="8" as="geometry" />
        </mxCell>
        <mxCell id="a-M4X8nVCb2_B6a_NORF-39" value="+createPrescription(int patientID, int doctorID, String medications, String dosage, String frequency, DateTime startDate, DateTime endDate, String notes) : Boolean" style="text;strokeColor=none;fillColor=none;align=left;verticalAlign=top;spacingLeft=4;spacingRight=4;overflow=hidden;rotatable=0;points=[[0,0.5],[1,0.5]];portConstraint=eastwest;fontFamily=Times New Roman;fontSize=14;" parent="a-M4X8nVCb2_B6a_NORF-28" vertex="1">
          <mxGeometry y="257.6875" width="940" height="22.31" as="geometry" />
        </mxCell>
        <mxCell id="a-M4X8nVCb2_B6a_NORF-40" value="+getPrescription(int prescriptionID) : Prescription" style="text;strokeColor=none;fillColor=none;align=left;verticalAlign=top;spacingLeft=4;spacingRight=4;overflow=hidden;rotatable=0;points=[[0,0.5],[1,0.5]];portConstraint=eastwest;fontFamily=Times New Roman;fontSize=14;" parent="a-M4X8nVCb2_B6a_NORF-28" vertex="1">
          <mxGeometry y="279.9975" width="940" height="25" as="geometry" />
        </mxCell>
        <mxCell id="a-M4X8nVCb2_B6a_NORF-41" value="+updatePrescription(int prescriptionID, String medications, String dosage, String frequency, DateTime startDate, DateTime endDate, String notes) : Boolean" style="text;strokeColor=none;fillColor=none;align=left;verticalAlign=top;spacingLeft=4;spacingRight=4;overflow=hidden;rotatable=0;points=[[0,0.5],[1,0.5]];portConstraint=eastwest;fontFamily=Times New Roman;fontSize=14;" parent="a-M4X8nVCb2_B6a_NORF-28" vertex="1">
          <mxGeometry y="304.9975" width="940" height="25" as="geometry" />
        </mxCell>
        <mxCell id="a-M4X8nVCb2_B6a_NORF-42" value="+validatePrescription(int prescriptionID) : Boolean" style="text;strokeColor=none;fillColor=none;align=left;verticalAlign=top;spacingLeft=4;spacingRight=4;overflow=hidden;rotatable=0;points=[[0,0.5],[1,0.5]];portConstraint=eastwest;fontFamily=Times New Roman;fontSize=14;" parent="a-M4X8nVCb2_B6a_NORF-28" vertex="1">
          <mxGeometry y="329.9975" width="940" height="25" as="geometry" />
        </mxCell>
        <mxCell id="a-M4X8nVCb2_B6a_NORF-43" value="+List[Prescription] getPrescriptionsByPatient(int patientID) : List[Prescription]" style="text;strokeColor=none;fillColor=none;align=left;verticalAlign=top;spacingLeft=4;spacingRight=4;overflow=hidden;rotatable=0;points=[[0,0.5],[1,0.5]];portConstraint=eastwest;fontFamily=Times New Roman;fontSize=14;" parent="a-M4X8nVCb2_B6a_NORF-28" vertex="1">
          <mxGeometry y="354.9975" width="940" height="25" as="geometry" />
        </mxCell>
        <mxCell id="a-M4X8nVCb2_B6a_NORF-44" value="+deletePrescription(int prescriptionID) : Boolean&#xa;+refusePrescription(int prescriptionID): void" style="text;strokeColor=none;fillColor=none;align=left;verticalAlign=top;spacingLeft=4;spacingRight=4;overflow=hidden;rotatable=0;points=[[0,0.5],[1,0.5]];portConstraint=eastwest;fontFamily=Times New Roman;fontSize=14;" parent="a-M4X8nVCb2_B6a_NORF-28" vertex="1">
          <mxGeometry y="379.9975" width="940" height="40" as="geometry" />
        </mxCell>
        <mxCell id="a-M4X8nVCb2_B6a_NORF-45" value="&lt;font style=&quot;font-size: 14px;&quot; face=&quot;Times New Roman&quot;&gt;Doctor&lt;/font&gt;" style="swimlane;fontStyle=1;align=center;verticalAlign=top;childLayout=stackLayout;horizontal=1;startSize=26;horizontalStack=0;resizeParent=1;resizeParentMax=0;resizeLast=0;collapsible=1;marginBottom=0;whiteSpace=wrap;html=1;" parent="1" vertex="1">
          <mxGeometry x="100" y="-1080" width="440" height="330" as="geometry" />
        </mxCell>
        <mxCell id="a-M4X8nVCb2_B6a_NORF-46" value="-doctorID: int&lt;br style=&quot;border-color: var(--border-color);&quot;&gt;-doctorName: String&lt;br&gt;-doctorLisence: String&lt;br style=&quot;font-size: 14px;&quot;&gt;-doctorDepartment: String&lt;br style=&quot;font-size: 14px;&quot;&gt;-doctorTel: String&lt;br&gt;-password: String&lt;br&gt;-dateOfBirth: DateTime&amp;nbsp;&lt;br style=&quot;border-color: var(--border-color);&quot;&gt;-gender: String&amp;nbsp;&lt;br style=&quot;border-color: var(--border-color);&quot;&gt;-email: String&amp;nbsp;&lt;br style=&quot;border-color: var(--border-color);&quot;&gt;-photo: String&amp;nbsp;" style="text;strokeColor=none;fillColor=none;align=left;verticalAlign=top;spacingLeft=4;spacingRight=4;overflow=hidden;rotatable=0;points=[[0,0.5],[1,0.5]];portConstraint=eastwest;whiteSpace=wrap;html=1;fontFamily=Times New Roman;fontStyle=0;fontSize=14;" parent="a-M4X8nVCb2_B6a_NORF-45" vertex="1">
          <mxGeometry y="26" width="440" height="174" as="geometry" />
        </mxCell>
        <mxCell id="a-M4X8nVCb2_B6a_NORF-47" value="" style="line;strokeWidth=1;fillColor=none;align=left;verticalAlign=middle;spacingTop=-1;spacingLeft=3;spacingRight=3;rotatable=0;labelPosition=right;points=[];portConstraint=eastwest;strokeColor=inherit;" parent="a-M4X8nVCb2_B6a_NORF-45" vertex="1">
          <mxGeometry y="200" width="440" height="8" as="geometry" />
        </mxCell>
        <mxCell id="a-M4X8nVCb2_B6a_NORF-48" value="+login(int&amp;nbsp;doctorID, string&amp;nbsp;password):&amp;nbsp;boolean&lt;br&gt;+logout(int doctorID):&amp;nbsp;void&lt;br style=&quot;font-size: 14px;&quot;&gt;+updateDoctorInfo(int doctorID, string doctorTel, string password, string photo):&amp;nbsp;void&lt;br style=&quot;font-size: 14px;&quot;&gt;+arrangeTest(int patientID):&amp;nbsp;void&lt;br&gt;+discusswithPatient(int patientID): void&lt;br&gt;+checkPayment(billingID): void" style="text;strokeColor=none;fillColor=none;align=left;verticalAlign=middle;spacingLeft=4;spacingRight=4;overflow=hidden;rotatable=0;points=[[0,0.5],[1,0.5]];portConstraint=eastwest;whiteSpace=wrap;html=1;fontSize=14;fontFamily=Times New Roman;" parent="a-M4X8nVCb2_B6a_NORF-45" vertex="1">
          <mxGeometry y="208" width="440" height="122" as="geometry" />
        </mxCell>
        <mxCell id="a-M4X8nVCb2_B6a_NORF-49" value="Patient" style="swimlane;fontStyle=1;align=center;verticalAlign=top;childLayout=stackLayout;horizontal=1;startSize=26;horizontalStack=0;resizeParent=1;resizeParentMax=0;resizeLast=0;collapsible=1;marginBottom=0;whiteSpace=wrap;html=1;fontFamily=Times New Roman;fontSize=14;" parent="1" vertex="1">
          <mxGeometry x="-590" y="-1075" width="480" height="340" as="geometry" />
        </mxCell>
        <mxCell id="a-M4X8nVCb2_B6a_NORF-50" value="&lt;font style=&quot;font-size: 14px;&quot;&gt;        -patientID:int&lt;br style=&quot;font-size: 14px;&quot;&gt;-name:String&amp;nbsp;&lt;br style=&quot;font-size: 14px;&quot;&gt;-phoneNumber:String&amp;nbsp;&lt;br style=&quot;font-size: 14px;&quot;&gt;-address:String&amp;nbsp;&lt;br style=&quot;font-size: 14px;&quot;&gt;-password:String&amp;nbsp;&lt;br style=&quot;font-size: 14px;&quot;&gt;-dateOfBirth:DateTime&amp;nbsp;&lt;br style=&quot;font-size: 14px;&quot;&gt;-gender:String&amp;nbsp;&lt;br style=&quot;font-size: 14px;&quot;&gt;-email:String&amp;nbsp;&lt;br style=&quot;font-size: 14px;&quot;&gt;        -photo:String&amp;nbsp;&lt;/font&gt;" style="text;strokeColor=none;fillColor=none;align=left;verticalAlign=top;spacingLeft=4;spacingRight=4;overflow=hidden;rotatable=0;points=[[0,0.5],[1,0.5]];portConstraint=eastwest;whiteSpace=wrap;html=1;fontFamily=Times New Roman;fontSize=14;" parent="a-M4X8nVCb2_B6a_NORF-49" vertex="1">
          <mxGeometry y="26" width="480" height="164" as="geometry" />
        </mxCell>
        <mxCell id="a-M4X8nVCb2_B6a_NORF-51" value="" style="line;strokeWidth=1;fillColor=none;align=left;verticalAlign=middle;spacingTop=-1;spacingLeft=3;spacingRight=3;rotatable=0;labelPosition=right;points=[];portConstraint=eastwest;strokeColor=inherit;fontFamily=Times New Roman;fontSize=12;" parent="a-M4X8nVCb2_B6a_NORF-49" vertex="1">
          <mxGeometry y="190" width="480" height="8" as="geometry" />
        </mxCell>
        <mxCell id="a-M4X8nVCb2_B6a_NORF-52" value="&lt;font style=&quot;font-size: 14px;&quot;&gt;+register(String name, String phoneNumber, String address, DateTime dateOfBirth, String gender, String email, String password,String photo):&amp;nbsp;Boolean&lt;br style=&quot;font-size: 14px;&quot;&gt;+login(String username, String password): Boolean&lt;br style=&quot;font-size: 14px;&quot;&gt;+logout():&amp;nbsp;void&lt;br style=&quot;font-size: 14px;&quot;&gt;+checkPatientInfo(int pateintID):&amp;nbsp;Patient&lt;br style=&quot;font-size: 14px;&quot;&gt;+updatePatientInfo(String name, String phoneNumber, String address, DateTime dateOfBirth, String gender, String email, String password,String photo):&amp;nbsp;Boolean&lt;br style=&quot;font-size: 14px;&quot;&gt;&lt;/font&gt;&lt;span style=&quot;font-size: 14px;&quot;&gt;&lt;br style=&quot;font-size: 14px;&quot;&gt;&lt;/span&gt;" style="text;strokeColor=none;fillColor=none;align=left;verticalAlign=top;spacingLeft=4;spacingRight=4;overflow=hidden;rotatable=0;points=[[0,0.5],[1,0.5]];portConstraint=eastwest;whiteSpace=wrap;html=1;fontSize=14;fontFamily=Times New Roman;" parent="a-M4X8nVCb2_B6a_NORF-49" vertex="1">
          <mxGeometry y="198" width="480" height="142" as="geometry" />
        </mxCell>
        <mxCell id="a-M4X8nVCb2_B6a_NORF-53" value="Billing" style="swimlane;fontStyle=1;align=center;verticalAlign=top;childLayout=stackLayout;horizontal=1;startSize=25.25;horizontalStack=0;resizeParent=1;resizeParentMax=0;resizeLast=0;collapsible=0;marginBottom=0;fontFamily=Times New Roman;fontSize=14;" parent="1" vertex="1">
          <mxGeometry x="104.5" y="-1450" width="431" height="308.25" as="geometry" />
        </mxCell>
        <mxCell id="a-M4X8nVCb2_B6a_NORF-54" value="-billingID : int" style="text;strokeColor=none;fillColor=none;align=left;verticalAlign=top;spacingLeft=4;spacingRight=4;overflow=hidden;rotatable=0;points=[[0,0.5],[1,0.5]];portConstraint=eastwest;fontFamily=Times New Roman;fontSize=14;" parent="a-M4X8nVCb2_B6a_NORF-53" vertex="1">
          <mxGeometry y="25.25" width="431" height="25" as="geometry" />
        </mxCell>
        <mxCell id="a-M4X8nVCb2_B6a_NORF-55" value="-patientID : int" style="text;strokeColor=none;fillColor=none;align=left;verticalAlign=top;spacingLeft=4;spacingRight=4;overflow=hidden;rotatable=0;points=[[0,0.5],[1,0.5]];portConstraint=eastwest;fontFamily=Times New Roman;fontSize=14;" parent="a-M4X8nVCb2_B6a_NORF-53" vertex="1">
          <mxGeometry y="50.25" width="431" height="25" as="geometry" />
        </mxCell>
        <mxCell id="a-M4X8nVCb2_B6a_NORF-56" value="-details : String" style="text;strokeColor=none;fillColor=none;align=left;verticalAlign=top;spacingLeft=4;spacingRight=4;overflow=hidden;rotatable=0;points=[[0,0.5],[1,0.5]];portConstraint=eastwest;fontFamily=Times New Roman;fontSize=14;" parent="a-M4X8nVCb2_B6a_NORF-53" vertex="1">
          <mxGeometry y="75.25" width="431" height="25" as="geometry" />
        </mxCell>
        <mxCell id="a-M4X8nVCb2_B6a_NORF-57" value="-amountDue : double" style="text;strokeColor=none;fillColor=none;align=left;verticalAlign=top;spacingLeft=4;spacingRight=4;overflow=hidden;rotatable=0;points=[[0,0.5],[1,0.5]];portConstraint=eastwest;fontFamily=Times New Roman;fontSize=14;" parent="a-M4X8nVCb2_B6a_NORF-53" vertex="1">
          <mxGeometry y="100.25" width="431" height="25" as="geometry" />
        </mxCell>
        <mxCell id="a-M4X8nVCb2_B6a_NORF-58" value="-paymentStatus : String" style="text;strokeColor=none;fillColor=none;align=left;verticalAlign=top;spacingLeft=4;spacingRight=4;overflow=hidden;rotatable=0;points=[[0,0.5],[1,0.5]];portConstraint=eastwest;fontFamily=Times New Roman;fontSize=14;" parent="a-M4X8nVCb2_B6a_NORF-53" vertex="1">
          <mxGeometry y="125.25" width="431" height="25" as="geometry" />
        </mxCell>
        <mxCell id="a-M4X8nVCb2_B6a_NORF-59" value="-billingDate : DateTime" style="text;strokeColor=none;fillColor=none;align=left;verticalAlign=top;spacingLeft=4;spacingRight=4;overflow=hidden;rotatable=0;points=[[0,0.5],[1,0.5]];portConstraint=eastwest;fontFamily=Times New Roman;fontSize=14;" parent="a-M4X8nVCb2_B6a_NORF-53" vertex="1">
          <mxGeometry y="150.25" width="431" height="25" as="geometry" />
        </mxCell>
        <mxCell id="a-M4X8nVCb2_B6a_NORF-60" style="line;strokeWidth=1;fillColor=none;align=left;verticalAlign=middle;spacingTop=-1;spacingLeft=3;spacingRight=3;rotatable=0;labelPosition=right;points=[];portConstraint=eastwest;strokeColor=inherit;fontFamily=Times New Roman;fontSize=12;" parent="a-M4X8nVCb2_B6a_NORF-53" vertex="1">
          <mxGeometry y="175.25" width="431" height="8" as="geometry" />
        </mxCell>
        <mxCell id="a-M4X8nVCb2_B6a_NORF-61" value="+createBill(int patientID, String details, double amountDue) : Boolean" style="text;strokeColor=none;fillColor=none;align=left;verticalAlign=top;spacingLeft=4;spacingRight=4;overflow=hidden;rotatable=0;points=[[0,0.5],[1,0.5]];portConstraint=eastwest;fontFamily=Times New Roman;fontSize=14;" parent="a-M4X8nVCb2_B6a_NORF-53" vertex="1">
          <mxGeometry y="183.25" width="431" height="25" as="geometry" />
        </mxCell>
        <mxCell id="a-M4X8nVCb2_B6a_NORF-62" value="+getBill(int billingID) : Billing" style="text;strokeColor=none;fillColor=none;align=left;verticalAlign=top;spacingLeft=4;spacingRight=4;overflow=hidden;rotatable=0;points=[[0,0.5],[1,0.5]];portConstraint=eastwest;fontFamily=Times New Roman;fontSize=14;" parent="a-M4X8nVCb2_B6a_NORF-53" vertex="1">
          <mxGeometry y="208.25" width="431" height="25" as="geometry" />
        </mxCell>
        <mxCell id="a-M4X8nVCb2_B6a_NORF-63" value="+updatePaymentStatus(int billingID, String paymentStatus) : Boolean" style="text;strokeColor=none;fillColor=none;align=left;verticalAlign=top;spacingLeft=4;spacingRight=4;overflow=hidden;rotatable=0;points=[[0,0.5],[1,0.5]];portConstraint=eastwest;fontFamily=Times New Roman;fontSize=14;" parent="a-M4X8nVCb2_B6a_NORF-53" vertex="1">
          <mxGeometry y="233.25" width="431" height="25" as="geometry" />
        </mxCell>
        <mxCell id="a-M4X8nVCb2_B6a_NORF-64" value="+processPayment(int billingID, double amount) : Boolean" style="text;strokeColor=none;fillColor=none;align=left;verticalAlign=top;spacingLeft=4;spacingRight=4;overflow=hidden;rotatable=0;points=[[0,0.5],[1,0.5]];portConstraint=eastwest;fontFamily=Times New Roman;fontSize=14;" parent="a-M4X8nVCb2_B6a_NORF-53" vertex="1">
          <mxGeometry y="258.25" width="431" height="25" as="geometry" />
        </mxCell>
        <mxCell id="a-M4X8nVCb2_B6a_NORF-65" value="+List[Billing] getBillsByPatient(int patientID) : List[Billing]" style="text;strokeColor=none;fillColor=none;align=left;verticalAlign=top;spacingLeft=4;spacingRight=4;overflow=hidden;rotatable=0;points=[[0,0.5],[1,0.5]];portConstraint=eastwest;fontFamily=Times New Roman;fontSize=14;" parent="a-M4X8nVCb2_B6a_NORF-53" vertex="1">
          <mxGeometry y="283.25" width="431" height="25" as="geometry" />
        </mxCell>
        <mxCell id="a-M4X8nVCb2_B6a_NORF-66" value="" style="endArrow=none;html=1;rounded=0;exitX=0.5;exitY=0;exitDx=0;exitDy=0;" parent="1" source="a-M4X8nVCb2_B6a_NORF-45" target="a-M4X8nVCb2_B6a_NORF-65" edge="1">
          <mxGeometry width="50" height="50" relative="1" as="geometry">
            <mxPoint x="-100" y="-957" as="sourcePoint" />
            <mxPoint x="110" y="-957" as="targetPoint" />
          </mxGeometry>
        </mxCell>
        <mxCell id="a-M4X8nVCb2_B6a_NORF-67" value="1" style="text;html=1;align=center;verticalAlign=middle;resizable=0;points=[];autosize=1;strokeColor=none;fillColor=none;fontFamily=Times New Roman;fontStyle=1;fontSize=14;" parent="1" vertex="1">
          <mxGeometry x="320" y="-1141.75" width="30" height="30" as="geometry" />
        </mxCell>
        <mxCell id="a-M4X8nVCb2_B6a_NORF-68" value="1" style="text;html=1;align=center;verticalAlign=middle;resizable=0;points=[];autosize=1;strokeColor=none;fillColor=none;fontFamily=Times New Roman;fontStyle=1;fontSize=14;" parent="1" vertex="1">
          <mxGeometry x="320" y="-1105" width="30" height="30" as="geometry" />
        </mxCell>
        <mxCell id="a-M4X8nVCb2_B6a_NORF-69" value="Checks" style="text;html=1;align=center;verticalAlign=middle;resizable=0;points=[];autosize=1;strokeColor=none;fillColor=none;fontFamily=Times New Roman;fontStyle=1;fontSize=14;" parent="1" vertex="1">
          <mxGeometry x="320" y="-1122" width="70" height="30" as="geometry" />
        </mxCell>
        <mxCell id="7-CjSvImoollpPjnMUuW-10" value="Lab Test" style="swimlane;fontStyle=1;align=center;verticalAlign=top;childLayout=stackLayout;horizontal=1;startSize=26;horizontalStack=0;resizeParent=1;resizeParentMax=0;resizeLast=0;collapsible=1;marginBottom=0;whiteSpace=wrap;html=1;fontFamily=Times New Roman;" vertex="1" parent="1">
          <mxGeometry x="-590" y="-682" width="420" height="450" as="geometry" />
        </mxCell>
        <mxCell id="7-CjSvImoollpPjnMUuW-11" value="-testID: int&lt;br style=&quot;font-size: 14px;&quot;&gt;-patientID: int&lt;br&gt;-instrumentID : int&lt;br&gt;-technicianID : int&lt;br&gt;-testItems: String&lt;br style=&quot;font-size: 14px;&quot;&gt;-testResult: String&lt;br&gt;-testDate: DateTime&lt;br&gt;-name:&amp;nbsp;String&lt;br&gt;-description: String&lt;br&gt;-status: String" style="text;strokeColor=none;fillColor=none;align=left;verticalAlign=top;spacingLeft=4;spacingRight=4;overflow=hidden;rotatable=0;points=[[0,0.5],[1,0.5]];portConstraint=eastwest;whiteSpace=wrap;html=1;fontFamily=Times New Roman;fontSize=14;" vertex="1" parent="7-CjSvImoollpPjnMUuW-10">
          <mxGeometry y="26" width="420" height="174" as="geometry" />
        </mxCell>
        <mxCell id="7-CjSvImoollpPjnMUuW-12" value="" style="line;strokeWidth=1;fillColor=none;align=left;verticalAlign=middle;spacingTop=-1;spacingLeft=3;spacingRight=3;rotatable=0;labelPosition=right;points=[];portConstraint=eastwest;strokeColor=inherit;fontFamily=Times New Roman;" vertex="1" parent="7-CjSvImoollpPjnMUuW-10">
          <mxGeometry y="200" width="420" height="8" as="geometry" />
        </mxCell>
        <mxCell id="7-CjSvImoollpPjnMUuW-13" value="+createTest(int patientID, int technicianID, int instrumentID, String testItems, DateTime testDate, name, description): Boolean&lt;br&gt;+recordResults(int testID, String testResult, DateTime testDate): boolean&lt;br style=&quot;border-color: var(--border-color);&quot;&gt;+getTest(int testID): Test&lt;br&gt;+getTestsByPatient(int patientID): List[Test]&lt;br&gt;+getTestsByTechnician(int technicianID): List[Test]&lt;br&gt;+updateTest(int testID, String testItems, String testResult, DateTime testDate): Boolean&lt;br&gt;+cancelTest(int testID): Boolean&lt;br&gt;+setStatus(int testID): Boolean&lt;br&gt;+schedulTest(int requestID, int instrumentID): void&lt;br&gt;+processTest(int testID, int technicianID, patientID): Boolean&lt;br&gt;+checkResult(int testID, int PatientID, String testResult)" style="text;strokeColor=none;fillColor=none;align=left;verticalAlign=top;spacingLeft=4;spacingRight=4;overflow=hidden;rotatable=0;points=[[0,0.5],[1,0.5]];portConstraint=eastwest;whiteSpace=wrap;html=1;fontFamily=Times New Roman;fontSize=14;" vertex="1" parent="7-CjSvImoollpPjnMUuW-10">
          <mxGeometry y="208" width="420" height="242" as="geometry" />
        </mxCell>
        <mxCell id="7-CjSvImoollpPjnMUuW-15" value="&lt;font style=&quot;font-size: 14px;&quot;&gt;Lab Request&lt;/font&gt;" style="swimlane;fontStyle=1;align=center;verticalAlign=top;childLayout=stackLayout;horizontal=1;startSize=26;horizontalStack=0;resizeParent=1;resizeParentMax=0;resizeLast=0;collapsible=1;marginBottom=0;whiteSpace=wrap;html=1;fontFamily=Times New Roman;" vertex="1" parent="1">
          <mxGeometry x="30" y="-548" width="420" height="326" as="geometry" />
        </mxCell>
        <mxCell id="7-CjSvImoollpPjnMUuW-16" value="-requestID: int&lt;br&gt;-patientID: int&lt;br&gt;-doctorID: int&lt;br&gt;-instrumentID: int&lt;br style=&quot;border-color: var(--border-color);&quot;&gt;-testType: String&lt;br&gt;-requestedDate: DateTime&lt;br&gt;-status: String" style="text;strokeColor=none;fillColor=none;align=left;verticalAlign=top;spacingLeft=4;spacingRight=4;overflow=hidden;rotatable=0;points=[[0,0.5],[1,0.5]];portConstraint=eastwest;whiteSpace=wrap;html=1;fontFamily=Times New Roman;fontSize=14;" vertex="1" parent="7-CjSvImoollpPjnMUuW-15">
          <mxGeometry y="26" width="420" height="130" as="geometry" />
        </mxCell>
        <mxCell id="7-CjSvImoollpPjnMUuW-17" value="" style="line;strokeWidth=1;fillColor=none;align=left;verticalAlign=middle;spacingTop=-1;spacingLeft=3;spacingRight=3;rotatable=0;labelPosition=right;points=[];portConstraint=eastwest;strokeColor=inherit;fontFamily=Times New Roman;" vertex="1" parent="7-CjSvImoollpPjnMUuW-15">
          <mxGeometry y="156" width="420" height="8" as="geometry" />
        </mxCell>
        <mxCell id="7-CjSvImoollpPjnMUuW-18" value="+createRequest(int&amp;nbsp;doctorID, int patientID, int instrumentID, String testType, DateTime requestedDate): void&lt;br style=&quot;font-size: 14px;&quot;&gt;+updateRequest(int requestID): Boolean&lt;br&gt;+getRequestDetails(int requestID): Request&lt;br&gt;+listRequestsByPatient(int patientID): List&amp;lt;Request&amp;gt;&lt;br&gt;+listRequestsByDoctor(int&amp;nbsp;doctorID): List&amp;lt;Request&amp;gt;&lt;br&gt;+cancelRequest(int&amp;nbsp;requestID): Boolean&lt;br&gt;+checkPaymentStatus(int requestID): Boolean&lt;br&gt;+specifyReason(int requestID): Boolean" style="text;strokeColor=none;fillColor=none;align=left;verticalAlign=top;spacingLeft=4;spacingRight=4;overflow=hidden;rotatable=0;points=[[0,0.5],[1,0.5]];portConstraint=eastwest;whiteSpace=wrap;html=1;fontFamily=Times New Roman;fontSize=14;" vertex="1" parent="7-CjSvImoollpPjnMUuW-15">
          <mxGeometry y="164" width="420" height="162" as="geometry" />
        </mxCell>
      </root>
    </mxGraphModel>
  </diagram>
</mxfile>
